<?xml version="1.0" encoding="utf-8"?>
<!-- Generator: Adobe Illustrator 16.0.0, SVG Export Plug-In . SVG Version: 6.00 Build 0)  -->
<!DOCTYPE svg PUBLIC "-//W3C//DTD SVG 1.1//EN" "http://www.w3.org/Graphics/SVG/1.1/DTD/svg11.dtd">
<svg version="1.1" id="Layer_1" xmlns="http://www.w3.org/2000/svg" xmlns:xlink="http://www.w3.org/1999/xlink" x="0px" y="0px"
	 width="80px" height="80px" viewBox="0 0 1080 1080" enable-background="new 0 0 1080 1080" xml:space="preserve">
<path fill="#F0AD20" d="M827.377,558.821c-3.947-23.261-25.243-39.243-48.402-36.901l-1.58,0.184l-0.405,0.05l-15.666,1.805
	l-1.062,0.12c-2.404,0.284-4.797,0.487-7.18,0.609c-38.05,1.935-73.484-16.28-94.478-46.255c-0.021-0.007-0.021-0.018-0.021-0.027
	c-0.224-0.324-0.443-0.641-0.675-0.965c-0.014-0.027-0.033-0.045-0.051-0.075l-0.001-0.01
	c-30.948-43.942-85.364-68.712-141.889-59.139c-78.415,13.292-131.204,87.633-117.923,166.039
	c13.291,78.415,87.633,131.203,166.039,117.923c46.141-7.825,83.397-36.774,103.562-75.261c0.01-0.012,0.01-0.021,0.016-0.043
	c0.22-0.439,0.448-0.881,0.686-1.323c0.033-0.056,0.056-0.108,0.089-0.171c5.108-9.346,14.284-16.346,25.605-18.26
	c19.602-3.315,38.188,9.877,41.515,29.479c1.308,7.697,0.058,15.235-3.11,21.761c-0.249,0.503-0.511,1-0.773,1.496
	c-30.182,57.933-86.179,101.548-155.555,113.306C458.501,793.094,346.991,713.9,327.062,596.293
	c-19.932-117.617,59.261-229.127,176.878-249.06c51.54-8.729,101.913,1.574,143.921,25.802
	c27.011,15.583,50.562,36.93,68.735,62.667c0.267,0.371,0.521,0.733,0.771,1.104c0.025,0.048,0.062,0.083,0.097,0.128
	c7.795,10.639,21.18,16.573,35.076,14.22c19.602-3.314,32.805-21.904,29.488-41.506c-0.851-5.044-2.719-9.661-5.35-13.689
	c-0.01-0.01-0.022-0.028-0.023-0.038c-0.366-0.53-0.733-1.058-1.11-1.586c-21.013-29.791-47.412-55.171-77.538-74.945
	c-58.672-38.502-131.466-55.794-206.099-43.138C335.088,302.825,229.499,451.5,256.082,608.317
	C282.65,765.14,431.325,870.729,588.144,844.156c137.791-23.357,236.029-140.983,239.807-275.568
	c0.006-0.031,0.002-0.062,0.01-0.093c0.013-0.637,0.033-1.283,0.044-1.939c0.012-0.071,0.013-0.143,0.004-0.222
	C828.017,563.861,827.807,561.349,827.377,558.821z M552.056,631.188c-39.202,6.639-76.38-19.754-83.019-58.957
	c-6.644-39.213,19.754-76.379,58.957-83.018c39.212-6.644,76.38,19.753,83.018,58.956
	C617.654,587.38,591.258,624.546,552.056,631.188z"/>
</svg>
